<?xml version="1.0" encoding="UTF-8"?><svg id="a" xmlns="http://www.w3.org/2000/svg" viewBox="0 0 1024 337.52"><g><path d="M370.03,52.07v19.84h-41.41v21.43h30.98v19.26h-30.98v41.12h-24.75V52.07h66.16Z" fill="#fff"/><path d="M418.68,75.88c4.34-2.56,9.17-3.84,14.48-3.84v26.21h-6.81c-6.18,0-10.81,1.33-13.9,3.98-3.09,2.65-4.63,7.31-4.63,13.97v37.5h-24.75V72.92h24.75v13.46c2.9-4.44,6.52-7.94,10.86-10.5Z" fill="#fff"/><path d="M520.75,119.25h-56.03c.38,5.02,2,8.86,4.85,11.51,2.85,2.66,6.35,3.98,10.5,3.98,6.17,0,10.47-2.61,12.89-7.82h26.35c-1.35,5.31-3.79,10.09-7.31,14.33-3.52,4.25-7.94,7.58-13.25,9.99-5.31,2.41-11.24,3.62-17.81,3.62-7.92,0-14.96-1.69-21.14-5.07-6.18-3.38-11-8.2-14.48-14.48-3.47-6.27-5.21-13.61-5.21-22.01s1.71-15.73,5.14-22.01c3.42-6.27,8.23-11.1,14.41-14.48,6.17-3.38,13.27-5.07,21.28-5.07s14.77,1.64,20.85,4.92c6.08,3.28,10.84,7.96,14.26,14.04,3.42,6.08,5.14,13.18,5.14,21.28,0,2.32-.15,4.73-.44,7.24Zm-24.9-13.75c0-4.25-1.45-7.63-4.34-10.13-2.89-2.51-6.52-3.76-10.86-3.76s-7.65,1.21-10.5,3.62c-2.85,2.41-4.61,5.84-5.28,10.28h30.98Z" fill="#fff"/><path d="M533.99,91.3c3.14-6.27,7.41-11.1,12.82-14.48,5.4-3.38,11.44-5.07,18.1-5.07,5.31,0,10.16,1.11,14.55,3.33,4.39,2.22,7.84,5.21,10.35,8.98V46.56h24.76v107.14h-24.76v-11.58c-2.31,3.86-5.62,6.95-9.92,9.26-4.3,2.32-9.29,3.48-14.98,3.48-6.66,0-12.69-1.71-18.1-5.14-5.41-3.42-9.68-8.3-12.82-14.62-3.14-6.32-4.71-13.63-4.71-21.93s1.57-15.59,4.71-21.86Zm50.68,7.38c-3.43-3.57-7.6-5.36-12.52-5.36s-9.1,1.76-12.52,5.28c-3.42,3.52-5.14,8.38-5.14,14.55s1.71,11.08,5.14,14.7c3.42,3.62,7.6,5.43,12.52,5.43s9.1-1.79,12.52-5.36c3.42-3.57,5.14-8.44,5.14-14.62s-1.71-11.05-5.14-14.62Z" fill="#fff"/><path d="M668.13,75.88c4.34-2.56,9.17-3.84,14.48-3.84v26.21h-6.81c-6.18,0-10.81,1.33-13.9,3.98-3.09,2.65-4.63,7.31-4.63,13.97v37.5h-24.75V72.92h24.75v13.46c2.9-4.44,6.52-7.94,10.86-10.5Z" fill="#fff"/><path d="M696.29,60.68c-2.75-2.56-4.12-5.72-4.12-9.48s1.37-7.07,4.12-9.63c2.75-2.56,6.3-3.84,10.64-3.84s7.74,1.28,10.5,3.84c2.75,2.56,4.12,5.77,4.12,9.63s-1.37,6.93-4.12,9.48c-2.75,2.56-6.25,3.84-10.5,3.84s-7.89-1.28-10.64-3.84Zm22.95,12.23v80.79h-24.75V72.92h24.75Z" fill="#fff"/><path d="M737.41,91.3c3.42-6.27,8.2-11.1,14.33-14.48,6.13-3.38,13.15-5.07,21.07-5.07,10.14,0,18.6,2.65,25.41,7.96,6.8,5.31,11.27,12.79,13.39,22.44h-26.35c-2.22-6.18-6.51-9.27-12.88-9.27-4.54,0-8.16,1.76-10.86,5.28-2.71,3.52-4.05,8.57-4.05,15.13s1.35,11.61,4.05,15.13c2.7,3.52,6.32,5.29,10.86,5.29,6.37,0,10.66-3.09,12.88-9.27h26.35c-2.12,9.46-6.61,16.89-13.47,22.3-6.85,5.41-15.3,8.11-25.34,8.11-7.91,0-14.94-1.69-21.07-5.07-6.13-3.38-10.91-8.2-14.33-14.48-3.43-6.27-5.14-13.61-5.14-22.01s1.71-15.73,5.14-22.01Z" fill="#fff"/><path d="M874.15,153.7l-24.61-33.88v33.88h-24.75V46.56h24.75v59.22l24.47-32.86h30.55l-33.59,40.54,33.88,40.25h-30.69Z" fill="#fff"/><path d="M408.4,198.29v100.19h-13.17v-74.71l-33.3,74.71h-9.26l-33.45-74.85v74.85h-13.17v-100.19h14.19l37.06,82.82,37.07-82.82h14.04Z" fill="#fff"/><path d="M536.38,219.14l-24.75,79.34h-13.61l-19.11-62.98-19.11,62.98h-13.61l-24.9-79.34h13.47l18.24,66.6,19.69-66.6h13.46l19.26,66.74,17.95-66.74h13.03Z" fill="#fff"/><path d="M621.37,263.73h-63.41c.48,7.82,3.16,13.92,8.03,18.32,4.87,4.39,10.79,6.59,17.74,6.59,5.69,0,10.45-1.33,14.26-3.98,3.81-2.65,6.49-6.2,8.04-10.64h14.19c-2.12,7.63-6.37,13.83-12.74,18.6-6.37,4.78-14.28,7.17-23.75,7.17-7.53,0-14.26-1.69-20.19-5.07-5.94-3.38-10.6-8.18-13.97-14.41s-5.07-13.44-5.07-21.64,1.64-15.4,4.92-21.57c3.28-6.18,7.89-10.93,13.82-14.26s12.76-4.99,20.49-4.99,14.19,1.64,19.98,4.92c5.79,3.28,10.25,7.8,13.39,13.54,3.14,5.74,4.71,12.23,4.71,19.47,0,2.51-.15,5.16-.44,7.96Zm-16.51-23.67c-2.22-3.62-5.24-6.37-9.05-8.25-3.81-1.88-8.04-2.82-12.67-2.82-6.66,0-12.33,2.12-17.01,6.37-4.68,4.25-7.36,10.13-8.04,17.66h50.09c0-5.02-1.11-9.34-3.33-12.96Z" fill="#fff"/><path d="M701.28,226.45c5.99,5.84,8.98,14.26,8.98,25.27v46.76h-13.03v-44.88c0-7.91-1.98-13.97-5.93-18.17-3.96-4.2-9.36-6.3-16.22-6.3s-12.48,2.17-16.58,6.52c-4.1,4.34-6.15,10.67-6.15,18.97v43.87h-13.17v-79.34h13.17v11.29c2.61-4.06,6.15-7.19,10.64-9.41,4.49-2.22,9.43-3.33,14.84-3.33,9.65,0,17.47,2.92,23.45,8.76Z" fill="#fff"/><path d="M731.84,237.17c3.28-6.13,7.79-10.88,13.53-14.26,5.74-3.38,12.19-5.07,19.33-5.07,6.17,0,11.92,1.42,17.23,4.27,5.31,2.85,9.36,6.59,12.16,11.22v-41.99h13.32v107.14h-13.32v-14.91c-2.61,4.73-6.47,8.61-11.58,11.65-5.12,3.04-11.1,4.56-17.95,4.56s-13.44-1.74-19.19-5.21c-5.74-3.47-10.25-8.35-13.53-14.62-3.28-6.27-4.92-13.42-4.92-21.43s1.64-15.22,4.92-21.36Zm58.63,5.86c-2.41-4.44-5.67-7.84-9.77-10.21-4.1-2.36-8.61-3.55-13.54-3.55s-9.41,1.16-13.46,3.47c-4.05,2.32-7.29,5.7-9.7,10.13-2.41,4.44-3.62,9.65-3.62,15.64s1.21,11.37,3.62,15.85c2.41,4.49,5.65,7.92,9.7,10.28,4.05,2.37,8.54,3.55,13.46,3.55s9.43-1.18,13.54-3.55c4.1-2.36,7.36-5.79,9.77-10.28,2.41-4.49,3.62-9.72,3.62-15.71s-1.21-11.2-3.62-15.64Z" fill="#fff"/><path d="M935.39,219.14l-24.75,79.34h-13.61l-19.11-62.98-19.11,62.98h-13.61l-24.9-79.34h13.47l18.24,66.6,19.69-66.6h13.46l19.26,66.74,17.95-66.74h13.03Z" fill="#fff"/><path d="M948.42,237.17c3.28-6.13,7.79-10.88,13.53-14.26,5.74-3.38,12.14-5.07,19.19-5.07s12.98,1.5,18.1,4.49c5.11,2.99,8.93,6.76,11.44,11.29v-14.48h13.32v79.34h-13.32v-14.77c-2.61,4.63-6.49,8.47-11.66,11.51s-11.17,4.56-18.02,4.56-13.42-1.74-19.11-5.21c-5.69-3.47-10.18-8.35-13.46-14.62-3.28-6.27-4.92-13.42-4.92-21.43s1.64-15.22,4.92-21.36Zm58.63,5.86c-2.41-4.44-5.67-7.84-9.77-10.21-4.1-2.36-8.61-3.55-13.54-3.55s-9.41,1.16-13.46,3.47c-4.05,2.32-7.29,5.7-9.7,10.13-2.41,4.44-3.62,9.65-3.62,15.64s1.21,11.37,3.62,15.85c2.41,4.49,5.65,7.92,9.7,10.28,4.05,2.37,8.54,3.55,13.46,3.55s9.43-1.18,13.54-3.55c4.1-2.36,7.36-5.79,9.77-10.28,2.41-4.49,3.62-9.72,3.62-15.71s-1.21-11.2-3.62-15.64Z" fill="#fff"/></g><g><path d="M211.24,211.08h-82.93c-12.57,0-22.76,10.19-22.76,22.75v103.69c-32.68-32.67-65.35-65.33-98.02-98C2.71,234.7,0,228.17,0,221.35v-90.07c0-14.22,11.52-25.75,25.75-25.75,26.65,0,53.29,0,79.94,0,35.18,35.18,70.37,70.37,105.55,105.55Z" fill="#2563eb"/><path d="M242.75,105.52H105.69C70.5,70.35,35.32,35.17,.13,0,41.36,0,82.59,0,123.81,0c8.59,0,16.84,3.42,22.91,9.49,35.39,35.38,58.27,58.24,96.03,96.03Z" fill="#2563eb"/></g></svg>